<svg width="961" height="761" viewBox="0 0 961 761" fill="none" xmlns="http://www.w3.org/2000/svg">
<path fill-rule="evenodd" clip-rule="evenodd" d="M960.472 550.087L960.414 550.28C915.823 699.98 832.977 760.581 750.058 760.581C696.131 760.581 636.985 735.812 578.612 695.818C520.235 655.822 462.611 600.585 411.725 539.615C360.838 478.644 316.684 411.933 285.251 348.983C253.82 286.039 235.097 226.833 235.097 180.88C235.097 118.193 260.07 73.0171 301.79 43.521C343.498 14.0328 401.923 0.23114 468.811 0.23114H469.037V7.00604L468.861 7.04588C452.49 10.7425 441.129 21.5671 433.856 35.5847C426.581 49.6066 423.401 66.8148 423.401 83.2394C423.401 122.185 441.487 173.485 471.216 228.548C500.94 283.603 542.288 342.393 588.778 396.311C635.268 450.228 686.894 499.267 737.171 534.824C787.456 570.387 836.361 592.442 877.415 592.442C891.719 592.442 906.007 590.058 918.966 583.182C931.921 576.307 943.564 564.935 952.566 546.931L952.661 546.74L960.472 550.087ZM529.222 241.64L525.848 237.141L525.93 237.01C558.8 183.994 565.689 127.801 557.871 84.208C553.962 62.4108 546.378 43.7723 536.536 30.2574C526.692 16.7407 514.604 8.3682 501.689 7.05026L501.486 7.02952V0.23114H501.712C562.766 0.23114 604.475 13.2378 630.927 32.6449C657.386 52.0566 668.564 77.8612 668.564 103.404C668.564 160.865 617.496 212.924 529.376 241.59L529.222 241.64ZM630.893 317.834L631.002 317.666C681.989 239.061 753.17 211.432 813.737 211.432C852.52 211.432 889.19 223.651 916.167 246.509C943.148 269.369 960.424 302.864 960.424 345.383C960.424 418.746 901.943 472.966 830.718 472.966C786.085 472.966 742.485 455.96 716.962 412.36L716.846 412.161L717.047 412.048C753.059 391.924 766.813 361.222 766.813 333.708C766.813 315.713 761.256 300.911 752.012 290.611C742.77 280.313 729.831 274.501 715.035 274.501C691.778 274.501 663.184 288.246 637.742 323.228L637.6 323.424L630.893 317.834ZM473.379 642.518L473.229 642.696C414.819 711.726 326.669 760.581 221.526 760.581C147.715 760.581 92.465 736.95 55.6678 699.488C18.8721 662.028 0.547485 610.76 0.547485 555.522C0.547485 449.255 84.5014 344.102 250.168 334.544L250.331 334.535L252.578 340.152L252.441 340.256C234.466 354.002 222.343 380.334 217.388 412.148C212.435 443.953 214.655 481.197 225.325 516.719C246.663 587.759 301.781 651.875 400.887 651.875C427.4 651.875 452.827 646.571 467.638 638.108L467.771 638.032L473.379 642.518ZM960.197 550.216L952.769 547.032C934.727 583.116 906.071 592.668 877.415 592.668C712.912 592.668 423.175 239.252 423.175 83.2394C423.175 50.3389 435.911 14.2543 468.811 6.82521V0.457369C468.736 0.457369 468.66 0.457334 468.585 0.457369C334.974 0.519592 235.323 55.716 235.323 180.88C235.323 364.487 534.612 760.355 750.058 760.355C832.84 760.355 915.622 699.86 960.197 550.216ZM526.122 237.129C591.923 130.998 553.716 12.1317 501.712 6.82521V0.457369C501.787 0.457369 501.863 0.457334 501.938 0.457369C623.818 0.521594 668.337 52.493 668.337 103.404C668.337 160.715 617.394 212.719 529.306 241.375L526.122 237.129ZM631.192 317.789C682.134 239.252 753.242 211.658 813.737 211.658C891.212 211.658 960.197 260.478 960.197 345.383C960.197 418.613 901.825 472.74 830.718 472.74C786.209 472.74 742.759 455.81 717.272 412.441C717.234 412.376 717.196 412.311 717.158 412.245C717.224 412.209 717.289 412.172 717.355 412.135C753.292 391.968 767.039 361.252 767.039 333.708C767.039 297.624 744.752 274.275 715.035 274.275C691.727 274.275 663.131 288.024 637.693 322.912C637.648 322.973 637.604 323.034 637.559 323.095L631.192 317.789ZM473.055 642.549L473.056 642.55C473.008 642.607 472.959 642.665 472.91 642.722C414.537 711.616 326.508 760.355 221.526 760.355C74.0041 760.355 0.773718 665.898 0.773718 555.522C0.773718 449.391 84.6172 344.322 250.181 334.77L252.304 340.076C180.135 395.264 202.423 652.101 400.887 652.101C427.42 652.101 452.892 646.795 467.75 638.304L473.055 642.549Z" fill="white"/>
</svg>
